<svg width="20" height="20" viewBox="0 0 20 20" fill="none" xmlns="http://www.w3.org/2000/svg">
<g clip-path="url(#clip0_66_55)">
<path d="M14.95 14.9499C13.5255 16.0358 11.791 16.6373 10 16.6666C4.16671 16.6666 0.833374 9.99992 0.833374 9.99992C1.86995 8.06816 3.30765 6.38042 5.05004 5.04992M8.25004 3.53325C8.82365 3.39898 9.41093 3.33187 10 3.33325C15.8334 3.33325 19.1667 9.99992 19.1667 9.99992C18.6609 10.9463 18.0576 11.8372 17.3667 12.6583M11.7667 11.7666C11.5378 12.0122 11.2618 12.2092 10.9552 12.3459C10.6485 12.4825 10.3175 12.556 9.98178 12.5619C9.64611 12.5678 9.31268 12.5061 9.00138 12.3803C8.69009 12.2546 8.40731 12.0674 8.16991 11.83C7.93252 11.5926 7.74537 11.3099 7.61963 10.9986C7.49389 10.6873 7.43215 10.3539 7.43807 10.0182C7.44399 9.6825 7.51746 9.35146 7.6541 9.04479C7.79074 8.73813 7.98775 8.46213 8.23337 8.23325M0.833374 0.833252L19.1667 19.1666" stroke="#757575" stroke-width="1.6" stroke-linecap="round" stroke-linejoin="round"/>
</g>
<defs>
<clipPath id="clip0_66_55">
<rect width="20" height="20" fill="white"/>
</clipPath>
</defs>
</svg>
